<?xml version="1.0" encoding="UTF-8"?>
<svg id="_Слой_1" data-name="Слой_1" xmlns="http://www.w3.org/2000/svg" version="1.1" viewBox="0 0 2474.54 2143.01">
  <!-- Generator: Adobe Illustrator 30.5.1, SVG Export Plug-In . SVG Version: 2.1.4 Build 3)  -->
  <defs>
    <style>
      .st0 {
        fill: #231f20;
      }
    </style>
  </defs>
  <rect class="st0" x="454.13" y="1362.37" width="1566.27" height="133.09"/>
  <path class="st0" d="M1946.9,1229.08l-66.54-115.26L1237.27,0l-643.02,1113.83-66.54,115.19L0,2143.01h2474.54l-527.63-913.93ZM643.29,1295.03l66.54-115.26,527.43-913.59,527.5,913.59,66.48,115.26,412.78,714.89H230.58l412.71-714.89Z"/>
  <g>
    <rect class="st0" x="971.58" y="702.52" width="133.09" height="737.97" transform="translate(-426.65 788.18) rotate(-34.96)"/>
    <rect class="st0" x="1067.43" y="1004.96" width="737.97" height="133.09" transform="translate(-264.8022 1634.7726) rotate(-55.0409)"/>
  </g>
  <g>
    <polygon class="st0" points="763.56 2102.92 476.06 1487.37 544.01 1455.64 763.18 1924.87 1007.15 1396.58 1288.01 2035.22 1219.35 2065.41 1005.48 1579.08 763.56 2102.92"/>
    <polygon class="st0" points="1710.97 2102.92 1469.06 1579.08 1255.18 2065.41 1186.53 2035.22 1467.39 1396.58 1711.36 1924.87 1930.52 1455.64 1998.48 1487.37 1710.97 2102.92"/>
  </g>
</svg>